<svg width="40" height="40" viewBox="0 0 40 40" fill="none" xmlns="http://www.w3.org/2000/svg">
<rect width="40" height="40" rx="8" fill="white"/>
<g clip-path="url(#clip0_26_612)">
<path d="M23.7512 10C22.6849 10.0737 21.4387 10.7562 20.7124 11.645C20.0499 12.4512 19.5049 13.6487 19.7174 14.8125C20.8824 14.8487 22.0862 14.15 22.7837 13.2462C23.4362 12.405 23.9299 11.215 23.7512 10Z" fill="#1E222E"/>
<path d="M27.9609 16.71C26.9372 15.4263 25.4984 14.6813 24.1397 14.6813C22.346 14.6813 21.5872 15.54 20.341 15.54C19.056 15.54 18.0797 14.6838 16.5285 14.6838C15.0047 14.6838 13.3823 15.615 12.3535 17.2075C10.9073 19.45 11.1548 23.6662 13.4985 27.2575C14.3372 28.5424 15.4572 29.9874 16.9222 29.9999C18.226 30.0124 18.5935 29.1637 20.3597 29.1549C22.126 29.1449 22.461 30.0112 23.7622 29.9974C25.2284 29.9862 26.4097 28.3849 27.2484 27.1C27.8497 26.1787 28.0734 25.715 28.5397 24.675C25.1484 23.3837 24.6047 18.5613 27.9609 16.71Z" fill="#1E222E"/>
</g>
<defs>
<clipPath id="clip0_26_612">
<rect width="20" height="20" fill="white" transform="translate(10 10)"/>
</clipPath>
</defs>
</svg>
