<svg width="40" height="40" viewBox="0 0 40 40" fill="none" xmlns="http://www.w3.org/2000/svg">
<rect width="40" height="40" rx="8" fill="white"/>
<g clip-path="url(#clip0_26_621)">
<path d="M16.7116 12.2719C16.0465 11.9043 15.2656 11.9128 14.6048 12.2772L22.35 19.4221L24.9519 16.8202L16.7116 12.2719Z" fill="#1E222E"/>
<path d="M13.8287 13.0085C13.6396 13.3177 13.5312 13.6715 13.5312 14.0465V26.9509C13.5312 27.3143 13.6301 27.6607 13.8085 27.9634L21.5973 20.1747L13.8287 13.0085Z" fill="#1E222E"/>
<path d="M28.4033 18.7242L25.9214 17.3547L23.1325 20.1426L26.5504 23.2948L28.4043 22.2717C29.0715 21.902 29.471 21.239 29.471 20.4974C29.47 19.7559 29.0715 19.0929 28.4033 18.7242Z" fill="#1E222E"/>
<path d="M22.3761 20.8943L14.5661 28.7043C14.905 28.8976 15.2769 28.9996 15.6509 28.9996C16.0121 28.9996 16.3754 28.9083 16.708 28.7245L25.5655 23.8362L22.3761 20.8943Z" fill="#1E222E"/>
</g>
<defs>
<clipPath id="clip0_26_621">
<rect width="17" height="17" fill="white" transform="translate(13 12)"/>
</clipPath>
</defs>
</svg>
